<svg xmlns="http://www.w3.org/2000/svg" viewBox="0 0 205.76 124.32"><path d="M.37,0h48.4V11.94H31.86V56.16H17.28V11.94H.37Z"/><path d="M76.42,14H91.08V56.16H77.2v-8h-.47a12,12,0,0,1-4.81,6.28,14.44,14.44,0,0,1-8.14,2.25,14.32,14.32,0,0,1-7.62-2A13.58,13.58,0,0,1,51,49.08a17.8,17.8,0,0,1-1.82-8.2V14H63.86V37.85a7.35,7.35,0,0,0,1.63,5.06,5.77,5.77,0,0,0,4.57,1.84,6.06,6.06,0,0,0,4.65-1.86,7,7,0,0,0,1.71-5.12Z"/><path d="M123.73,24.67h-7.36v18a2.65,2.65,0,0,0,.83,2.21,4.28,4.28,0,0,0,2.66.66c1,0,2.5-.08,4.42-.23V56.23a38.32,38.32,0,0,1-7,.55q-7.8,0-11.73-3.11t-3.86-9.54V24.67H96.28V14h5.43V4h14.66V14h7.36Z"/><path d="M138.1,54.22a18.46,18.46,0,0,1-7.52-7.62A23.79,23.79,0,0,1,128,35.21a23.77,23.77,0,0,1,2.62-11.38,18.46,18.46,0,0,1,7.52-7.62,26.07,26.07,0,0,1,23.15,0,18.27,18.27,0,0,1,7.49,7.62,24.11,24.11,0,0,1,2.58,11.38,24.13,24.13,0,0,1-2.58,11.39,18.27,18.27,0,0,1-7.49,7.62,26.07,26.07,0,0,1-23.15,0Zm6.65-11.11a5.65,5.65,0,0,0,5,3,5.48,5.48,0,0,0,4.82-2.93,14.94,14.94,0,0,0,1.77-7.85,16.05,16.05,0,0,0-1.75-8.14,5.29,5.29,0,0,0-4.84-2.95,5.49,5.49,0,0,0-5,2.89,15.7,15.7,0,0,0-1.82,8.05A15.56,15.56,0,0,0,144.75,43.11Z"/><path d="M177.68,14h14.19V22h.47a12.23,12.23,0,0,1,3.58-6.34,8.8,8.8,0,0,1,5.92-2.11,17.84,17.84,0,0,1,3.92.46V26.6a14,14,0,0,0-2.62-.56,22.57,22.57,0,0,0-2.89-.21,8,8,0,0,0-4.09,1,7.19,7.19,0,0,0-2.81,2.87,8.58,8.58,0,0,0-1,4.24V56.16H177.68Z"/><path d="M0,123.46V67.31H21.17a31.55,31.55,0,0,1,14.94,3.35,23.22,23.22,0,0,1,9.73,9.7,31.32,31.32,0,0,1,3.41,15,31.28,31.28,0,0,1-3.39,15,23.21,23.21,0,0,1-9.7,9.7,31,31,0,0,1-14.83,3.37ZM20.79,110.9a17,17,0,0,0,7.48-1.46,9.61,9.61,0,0,0,4.54-4.86,22.64,22.64,0,0,0,1.55-9.19,22.35,22.35,0,0,0-1.57-9.23,9.53,9.53,0,0,0-4.62-4.85,18.21,18.21,0,0,0-7.77-1.44H14.74v31Z"/><path d="M60.25,75.88a6.82,6.82,0,0,1-2.66-2.44,6.32,6.32,0,0,1-1-3.42,6.2,6.2,0,0,1,1-3.37,6.94,6.94,0,0,1,2.66-2.46,7.8,7.8,0,0,1,7.31,0,7.13,7.13,0,0,1,2.65,2.46,6.14,6.14,0,0,1,1,3.37,6.26,6.26,0,0,1-1,3.42,7,7,0,0,1-2.65,2.44,8,8,0,0,1-7.31,0Zm-3.63,5.47H71.28v42.11H56.62Z"/><path d="M103.93,92H96.18v31.49H81.52V92H76.09V81.35h5.43V79.87q0-7.49,4-11.34t11-3.86a40.45,40.45,0,0,1,8.14.78V76.07l-2.36-.17L101,75.84a6,6,0,0,0-3.57,1,3.58,3.58,0,0,0-1.24,3v1.48h7.75Z"/><path d="M134.73,92H127v31.49H112.31V92h-5.43V81.35h5.43V79.87q0-7.49,4-11.34t11-3.86a40.45,40.45,0,0,1,8.14.78V76.07l-2.36-.17-1.28-.06a6,6,0,0,0-3.57,1,3.58,3.58,0,0,0-1.24,3v1.48h7.76Z"/><path d="M140.52,123.31a7.53,7.53,0,0,1-3.74-6.52,7.22,7.22,0,0,1,1-3.72,7.47,7.47,0,0,1,2.73-2.71,7.28,7.28,0,0,1,3.78-1,7.07,7.07,0,0,1,3.67,1,8,8,0,0,1,2.79,2.71,6.91,6.91,0,0,1,1.07,3.72,7.13,7.13,0,0,1-1.05,3.78,7.71,7.71,0,0,1-2.79,2.74,7.27,7.27,0,0,1-3.69,1A7.38,7.38,0,0,1,140.52,123.31Z"/></svg>