<svg width="96" height="24" viewBox="0 0 96 24" fill="none" xmlns="http://www.w3.org/2000/svg">
<path d="M0.983178 16.0206C1.91411 16.0206 2.88779 16.0079 3.90422 15.9826V9.12883H7.96517V15.852C10.4397 15.7332 12.5605 15.5614 14.3273 15.3366L14.5862 18.3883C12.544 18.7486 10.4822 18.9865 8.41164 19.1007C6.26479 19.2274 4.00633 19.2899 1.63626 19.2883H0.337225L0 16.0348C0.430635 16.0348 0.758361 16.0301 0.983178 16.0206ZM13.7312 4.57867C13.7312 6.34554 13.6925 7.8773 13.6149 9.17396C13.5276 10.641 13.3595 12.1022 13.1114 13.5508L9.05047 13.242C9.27687 11.8361 9.42331 10.5537 9.48981 9.39482C9.5563 8.2359 9.59984 6.94874 9.62042 5.53335H1.18741V2.24896H13.7312V4.57867ZM15.1989 0H19.4213V9.36157H22.2711V12.8003H19.4213V23.9216H15.1989V0Z" fill="white"/>
<path d="M34.1974 2.13734C35.1798 2.62006 36.014 3.35834 36.6126 4.27469C37.2047 5.19445 37.5128 6.26821 37.4984 7.36196C37.5071 8.2472 37.3095 9.12229 36.9212 9.91786C36.5329 10.7134 35.9646 11.4076 35.2614 11.9454C34.536 12.5032 33.7045 12.9073 32.8177 13.1328V15.8401C34.8521 15.7119 36.6198 15.544 38.1207 15.3366L38.4294 18.3099C36.116 18.7606 33.7745 19.0526 31.4213 19.1839C29.0464 19.3168 26.4428 19.3873 23.6105 19.3952L23.1355 16.0847C25.1715 16.0847 27.0168 16.0633 28.6712 16.0206V13.1257C27.7886 12.8985 26.9613 12.4945 26.2394 11.9383C25.5416 11.4066 24.9732 10.7238 24.577 9.94103C24.1822 9.13951 23.9843 8.25532 23.9999 7.36196C23.9866 6.26665 24.299 5.19207 24.8976 4.27469C25.5069 3.35702 26.3507 2.61906 27.3413 2.13734C28.41 1.62 29.582 1.35126 30.7694 1.35126C31.9567 1.35126 33.1287 1.62 34.1974 2.13734V2.13734ZM28.4741 8.72274C28.6943 9.09367 29.02 9.39051 29.4098 9.5753C29.8287 9.77328 30.2859 9.87704 30.7492 9.87928C31.4578 9.89991 32.1495 9.6609 32.6942 9.2072C32.9511 8.97581 33.1534 8.69023 33.2864 8.37112C33.4195 8.05201 33.48 7.70732 33.4636 7.36196C33.4636 6.54977 33.2024 5.93707 32.7013 5.51197C32.1489 5.07105 31.4552 4.84572 30.7492 4.87789C30.0592 4.84641 29.3821 5.07238 28.8493 5.51197C28.3744 5.93469 28.1226 6.54977 28.1369 7.36196C28.1214 7.838 28.2381 8.30903 28.4741 8.72274V8.72274ZM39.3342 0H43.4593V24H39.3342V0Z" fill="white"/>
<path d="M55.5376 10.6867C55.8989 11.8178 56.4791 12.8668 57.2451 13.774C58.0862 14.7685 59.1417 15.5593 60.3324 16.0871L58.0835 19.2171C56.9181 18.7273 55.8759 17.9852 55.0318 17.0441C54.1651 16.0716 53.4733 14.9564 52.9871 13.7479C52.4972 15.0554 51.7729 16.2626 50.8497 17.3101C49.9514 18.3172 48.8344 19.1052 47.5843 19.6137L45.3591 16.4219C46.5985 15.9139 47.6962 15.1128 48.558 14.0875C49.3621 13.1363 49.9698 12.0354 50.3463 10.8482C50.7024 9.71418 50.8896 8.53391 50.902 7.34534V7.03424H46.2924V3.74985H50.8687V0.61983H55.0342V3.74985H59.5464V7.03424H55.0342V7.34534C55.0262 8.47861 55.1961 9.60611 55.5376 10.6867V10.6867ZM60.8786 0H65.0417V8.97447H68.2738V12.4132H65.0417V23.9216H60.8786V0Z" fill="white"/>
<path d="M70.6868 5.67109C71.1613 4.46963 71.9636 3.42548 73.0022 2.65743C73.9753 1.95909 75.1459 1.58968 76.3436 1.60301C77.5219 1.59151 78.6724 1.96139 79.6232 2.65743C80.6472 3.43239 81.4371 4.47536 81.9054 5.67109C82.4818 7.11414 82.7628 8.65816 82.7319 10.2118C82.7649 11.784 82.4839 13.3471 81.9054 14.8094C81.4386 16.0112 80.6488 17.0607 79.6232 17.8421C78.6741 18.542 77.5228 18.9138 76.3436 18.9012C75.1426 18.9172 73.9684 18.5458 72.9951 17.8421C71.9583 17.0658 71.1589 16.0155 70.6868 14.8094C70.1035 13.3482 69.82 11.7847 69.8532 10.2118C69.8221 8.65748 70.1056 7.11297 70.6868 5.67109V5.67109ZM74.0661 13.8809C74.4984 14.7041 75.1111 15.1118 75.9043 15.1039C76.6452 15.1039 77.2286 14.6986 77.6545 13.888C78.0804 13.0774 78.2981 11.852 78.3076 10.2118C78.3076 8.60162 78.0899 7.3865 77.6545 6.5664C77.2191 5.74629 76.6357 5.34099 75.9043 5.35048C75.1277 5.35048 74.5197 5.73996 74.0804 6.5379C73.641 7.33584 73.4202 8.54463 73.4202 10.1381C73.4202 11.8116 73.6355 13.0592 74.0661 13.8809ZM89.0418 24H84.8526V0H89.0418V24Z" fill="white"/>
<path d="M92.1433 23.5107C91.7661 23.2901 91.452 22.976 91.2314 22.5987C91.0087 22.2161 90.893 21.7805 90.8966 21.3377C90.8934 20.901 91.0091 20.4716 91.2314 20.0957C91.4533 19.7231 91.7673 19.4139 92.1433 19.198C92.5258 18.9745 92.9614 18.858 93.4044 18.8608C93.8349 18.8614 94.2574 18.9778 94.6274 19.198C95.0073 19.4185 95.3271 19.7293 95.5583 20.1028C95.7928 20.4744 95.9156 20.9055 95.9122 21.3448C95.9153 21.7895 95.7944 22.2261 95.5631 22.6059C95.3344 22.9815 95.0141 23.2928 94.6322 23.5107C94.2602 23.7299 93.8362 23.8456 93.4044 23.8455C92.9616 23.8491 92.526 23.7334 92.1433 23.5107V23.5107Z" fill="white"/>
</svg>
