<svg xmlns="http://www.w3.org/2000/svg" viewBox="0 0 146.11 175.87"><path d="M65.52,70.2l-14.89,5v-40L9.73,49V35.5L65.52,16.67Z"/><path d="M118.44.55a17.27,17.27,0,0,1,10.3,6.65q3.84,5.16,3.84,13.15A34.78,34.78,0,0,1,128.74,36a44.87,44.87,0,0,1-10.3,13.53,40.26,40.26,0,0,1-14.13,8.39,25.68,25.68,0,0,1-14,1.11,16.76,16.76,0,0,1-10.2-6.61q-3.77-5.16-3.77-13.09a35.53,35.53,0,0,1,3.77-15.71,44.6,44.6,0,0,1,10.2-13.57,39.59,39.59,0,0,1,14-8.41A25.7,25.7,0,0,1,118.44.55ZM92.28,41.35a7.83,7.83,0,0,0,5,3.2,13.16,13.16,0,0,0,7-.7,19.73,19.73,0,0,0,7-4,20.06,20.06,0,0,0,4.94-6.53,18.53,18.53,0,0,0,1.8-8.07,11.35,11.35,0,0,0-1.8-6.77,7.49,7.49,0,0,0-4.92-3,13.91,13.91,0,0,0-7,.82,20.51,20.51,0,0,0-7,3.94,19.56,19.56,0,0,0-5,6.39,17.94,17.94,0,0,0-1.82,8A11.49,11.49,0,0,0,92.28,41.35Z"/><path d="M65.84,100.27l-18.33,6.19q.08,17.42,21.36,13.51l-6.14,14.1q-17.43,2.35-23.57-8.62Q33,140.57,15.59,150l-6.22-9.92q11.76-5.78,16.52-12.88a27.15,27.15,0,0,0,4.84-15l-17.9,6v-12.6L32.37,99V85.47L46.21,80.8V94.29l19.63-6.62Z"/><path d="M118.44,62.78a17.31,17.31,0,0,1,10.3,6.65q3.84,5.16,3.84,13.15a34.78,34.78,0,0,1-3.84,15.65,44.87,44.87,0,0,1-10.3,13.53,40.11,40.11,0,0,1-14.13,8.39,25.68,25.68,0,0,1-14,1.11,16.76,16.76,0,0,1-10.2-6.61q-3.77-5.15-3.77-13.09a35.53,35.53,0,0,1,3.77-15.71,44.6,44.6,0,0,1,10.2-13.57,39.59,39.59,0,0,1,14-8.41A25.7,25.7,0,0,1,118.44,62.78Zm-26.16,40.8a7.84,7.84,0,0,0,5,3.21,13.17,13.17,0,0,0,7-.71,19.73,19.73,0,0,0,7-4,20.06,20.06,0,0,0,4.94-6.53,18.52,18.52,0,0,0,1.8-8.06,11.31,11.31,0,0,0-1.8-6.77,7.5,7.5,0,0,0-4.92-3.06,13.91,13.91,0,0,0-7,.82,20.51,20.51,0,0,0-7,3.94,19.67,19.67,0,0,0-5,6.39,17.94,17.94,0,0,0-1.82,8A11.47,11.47,0,0,0,92.28,103.58Z"/><path d="M23.6,175.87l12.22-4.18,29.21-10,35.32-12.1L131,139.1l10-3.43,3.14-1.08a7.06,7.06,0,0,0,1.64-.56A.74.74,0,0,1,146,134c.41-.14-.36-3.63,0-3.75l-12.22,4.18-29.21,10L69.23,156.5,38.61,167l-10,3.44-3.15,1.07a7,7,0,0,0-1.63.56.74.74,0,0,1-.21.07c-.41.14.35,3.63,0,3.75Z"/><path d="M.12,170.85l12.22-4.19,29.22-10,35.32-12.1,30.62-10.49,10-3.43,3.14-1.08a7,7,0,0,0,1.63-.56.81.81,0,0,1,.22-.07c.41-.14-.36-3.63,0-3.75l-12.22,4.18-29.22,10-35.32,12.1L15.14,162l-10,3.44L2,166.46A7,7,0,0,0,.34,167a1.43,1.43,0,0,1-.22.08c-.4.13.36,3.62,0,3.75Z"/></svg>