<svg xmlns="http://www.w3.org/2000/svg" viewBox="0 0 144.4 92.98"><g id="레이어_2" data-name="레이어 2"><g id="레이어_1-2" data-name="레이어 1"><path d="M39.88,46.75,29.24,49.26V20.67L0,27.55V17.87L39.88,8.49Z"/><path d="M77.71.84a14.21,14.21,0,0,1,7.36,5.51A16.58,16.58,0,0,1,87.82,16a23.24,23.24,0,0,1-2.75,10.91,27.68,27.68,0,0,1-7.36,8.91,25.41,25.41,0,0,1-10.1,5,18.21,18.21,0,0,1-10-.24,13.7,13.7,0,0,1-7.29-5.47,16.69,16.69,0,0,1-2.7-9.63,23.61,23.61,0,0,1,2.7-11,27.38,27.38,0,0,1,7.29-9,24.86,24.86,0,0,1,10-5A18.2,18.2,0,0,1,77.71.84ZM59,28.09a6.4,6.4,0,0,0,3.58,2.66,9.38,9.38,0,0,0,5,0,12.54,12.54,0,0,0,8.55-6.66,12.35,12.35,0,0,0,1.28-5.63,8.74,8.74,0,0,0-1.28-5A6.14,6.14,0,0,0,72.64,11a9.78,9.78,0,0,0-5,.07,13.15,13.15,0,0,0-5,2.3A12.24,12.24,0,0,0,59,17.52a12,12,0,0,0-1.3,5.59A8.82,8.82,0,0,0,59,28.09Z"/><path d="M85.14,61.13,72,64.21q.06,12.45,15.27,11.22l-4.39,9.63q-12.47.41-16.85-7.89Q61.69,87.54,49.23,93l-4.45-7.55q8.4-3.27,11.8-8A17.73,17.73,0,0,0,60,67L47.25,70V61l14-3.29V48.1l9.89-2.33v9.65l14-3.3Z"/><path d="M122.75,38.18a14.14,14.14,0,0,1,7.36,5.51,16.64,16.64,0,0,1,2.74,9.67,23.32,23.32,0,0,1-2.74,10.91,27.74,27.74,0,0,1-7.36,8.92,25.43,25.43,0,0,1-10.11,5,18.31,18.31,0,0,1-10-.23,13.79,13.79,0,0,1-7.29-5.47,16.68,16.68,0,0,1-2.69-9.63,23.64,23.64,0,0,1,2.69-11,27.57,27.57,0,0,1,7.29-9,25,25,0,0,1,10-5A18.23,18.23,0,0,1,122.75,38.18ZM104,65.43a6.41,6.41,0,0,0,3.58,2.65,9.27,9.27,0,0,0,5,0,12.49,12.49,0,0,0,5-2.36,12.42,12.42,0,0,0,4.82-9.94,8.71,8.71,0,0,0-1.29-5,6.14,6.14,0,0,0-3.51-2.54,9.71,9.71,0,0,0-5,.07,13,13,0,0,0-5,2.3,11.93,11.93,0,0,0-4.87,9.78A8.92,8.92,0,0,0,104,65.43Z"/><path d="M136.31,75.58a3.69,3.69,0,0,1-1.95-1.45,4.35,4.35,0,0,1-.72-2.52,6.21,6.21,0,0,1,.72-2.85,7.91,7.91,0,0,1,1.95-2.44A7,7,0,0,1,139,64.9a4.65,4.65,0,0,1,2.62,0,4,4,0,0,1,2.76,3.9,6.13,6.13,0,0,1-.75,2.89,8.21,8.21,0,0,1-2,2.47,6.81,6.81,0,0,1-2.63,1.4A4.78,4.78,0,0,1,136.31,75.58Z"/></g></g></svg>