<svg xmlns="http://www.w3.org/2000/svg" viewBox="0 0 500 500"><path d="M166.39,246.54l-41.72,9.81V144.25L10,171.21v-38L166.39,96.48Z"/><path d="M314.76,66.47a55.66,55.66,0,0,1,28.87,21.61q10.75,15.56,10.76,38a91.11,91.11,0,0,1-10.76,42.79,108.52,108.52,0,0,1-28.87,35,99.45,99.45,0,0,1-39.62,19.48q-21.25,5-39.29-.92a53.92,53.92,0,0,1-28.6-21.44q-10.58-15.54-10.57-37.78a92.77,92.77,0,0,1,10.57-43A107.79,107.79,0,0,1,235.85,85a97.73,97.73,0,0,1,39.29-19.55Q296.67,60.43,314.76,66.47ZM241.43,173.35a25.19,25.19,0,0,0,14,10.42q8.93,2.72,19.68,0a48.81,48.81,0,0,0,38.57-48.21q0-12-5-19.51a24,24,0,0,0-13.78-10q-8.73-2.48-19.75.27a51,51,0,0,0-19.74,9,47.5,47.5,0,0,0-14,16.47,46.94,46.94,0,0,0-5.13,21.9Q236.3,165.65,241.43,173.35Z"/><path d="M257.63,322.52l-51.4,12.08q.24,48.86,59.88,44L248.9,416.35Q200,418,182.84,385.45q-17.22,40.62-66.06,62l-17.46-29.6q33-12.81,46.3-31.36a69.79,69.79,0,0,0,13.58-40.8L109,357.46V322.12l54.79-12.89V271.42l38.79-9.12v37.81l55-12.93Z"/><path d="M405.09,232.5A55.62,55.62,0,0,1,434,254.11q10.76,15.57,10.76,37.95A91.11,91.11,0,0,1,434,334.85a108.53,108.53,0,0,1-28.87,35,99.56,99.56,0,0,1-39.62,19.47q-21.25,5-39.29-.92a53.89,53.89,0,0,1-28.6-21.45Q287,351.39,287,329.14a92.9,92.9,0,0,1,10.57-43,107.89,107.89,0,0,1,28.6-35.12,97.58,97.58,0,0,1,39.29-19.54Q387,226.45,405.09,232.5ZM331.76,339.38a25.12,25.12,0,0,0,14,10.41q8.93,2.73,19.68,0a48.84,48.84,0,0,0,38.58-48.21q0-12-5.05-19.5a24,24,0,0,0-13.78-10q-8.73-2.48-19.75.27a51.16,51.16,0,0,0-19.74,9,47.56,47.56,0,0,0-14,16.49,46.87,46.87,0,0,0-5.12,21.89Q326.64,331.7,331.76,339.38Z"/><path d="M458.31,379.19a14.51,14.51,0,0,1-7.66-5.7,17,17,0,0,1-2.83-9.87,24.2,24.2,0,0,1,2.83-11.17,30.75,30.75,0,0,1,7.66-9.58,26.53,26.53,0,0,1,10.6-5.54,18,18,0,0,1,10.27.18,15.59,15.59,0,0,1,7.83,5.6,15.76,15.76,0,0,1,3,9.67,24.23,24.23,0,0,1-2.93,11.35,31.7,31.7,0,0,1-7.83,9.68,26.35,26.35,0,0,1-10.33,5.48A18.66,18.66,0,0,1,458.31,379.19Z"/></svg>